<svg xmlns="http://www.w3.org/2000/svg" viewBox="0 0 320 240" role="img" aria-label="CPU product placeholder">
  <rect width="320" height="240" rx="24" fill="#0b0f14"/>
  <rect x="76" y="38" width="168" height="168" rx="22" fill="#121a22" stroke="#00f5d4" stroke-width="4"/>
  <rect x="108" y="70" width="104" height="104" rx="14" fill="#17232d" stroke="#2de2c5" stroke-width="2"/>
  <g fill="#00f5d4" opacity=".75">
    <rect x="58" y="62" width="14" height="6" rx="2"/><rect x="58" y="88" width="14" height="6" rx="2"/><rect x="58" y="114" width="14" height="6" rx="2"/><rect x="58" y="140" width="14" height="6" rx="2"/><rect x="58" y="166" width="14" height="6" rx="2"/>
    <rect x="248" y="62" width="14" height="6" rx="2"/><rect x="248" y="88" width="14" height="6" rx="2"/><rect x="248" y="114" width="14" height="6" rx="2"/><rect x="248" y="140" width="14" height="6" rx="2"/><rect x="248" y="166" width="14" height="6" rx="2"/>
    <rect x="102" y="20" width="6" height="14" rx="2"/><rect x="128" y="20" width="6" height="14" rx="2"/><rect x="154" y="20" width="6" height="14" rx="2"/><rect x="180" y="20" width="6" height="14" rx="2"/><rect x="206" y="20" width="6" height="14" rx="2"/>
    <rect x="102" y="210" width="6" height="14" rx="2"/><rect x="128" y="210" width="6" height="14" rx="2"/><rect x="154" y="210" width="6" height="14" rx="2"/><rect x="180" y="210" width="6" height="14" rx="2"/><rect x="206" y="210" width="6" height="14" rx="2"/>
  </g>
  <text x="160" y="132" text-anchor="middle" fill="#e9fbf8" font-family="Arial, sans-serif" font-size="24" font-weight="700">CPU</text>
</svg>
